<svg id="Component_1_1" data-name="Component 1 – 1" xmlns="http://www.w3.org/2000/svg" xmlns:xlink="http://www.w3.org/1999/xlink" width="1215.947" height="259" viewBox="0 0 1215.947 259">
  <defs>
    <linearGradient id="linear-gradient" x1="1" y1="0.5" x2="0" y2="0.539" gradientUnits="objectBoundingBox">
      <stop offset="0" stop-color="#7214ff"/>
      <stop offset="1" stop-color="#f0c"/>
    </linearGradient>
  </defs>
  <text id="lean" transform="translate(0 207)" fill="#fff" font-size="214" font-family="Inter-Bold, Inter" font-weight="700"><tspan x="0" y="0">lean</tspan></text>
  <path id="Path_11" data-name="Path 11" d="M12.919,43.773v-160.5H44.837v19.607h1.444a42.917,42.917,0,0,1,6.194-9.613,32.6,32.6,0,0,1,10.639-8.207q6.573-3.306,16.377-3.306a44.061,44.061,0,0,1,23.558,6.649q10.791,6.65,17.251,19.987t6.46,33.4q0,19.531-6.27,32.944T103.466-4.978A43.7,43.7,0,0,1,79.414,1.9a37.144,37.144,0,0,1-16-3.116A32.784,32.784,0,0,1,52.664-9.081a39.1,39.1,0,0,1-6.384-9.613h-.988V43.773ZM44.609-58.364A51.953,51.953,0,0,0,47.5-40.2a26.709,26.709,0,0,0,8.359,12.045,20.883,20.883,0,0,0,13.3,4.294,20.758,20.758,0,0,0,13.375-4.37,26.965,26.965,0,0,0,8.321-12.159A52.168,52.168,0,0,0,93.7-58.364a51.578,51.578,0,0,0-2.812-17.783,26.491,26.491,0,0,0-8.283-12.007,21,21,0,0,0-13.451-4.332,21.223,21.223,0,0,0-13.337,4.18A26.088,26.088,0,0,0,47.5-76.45,51.313,51.313,0,0,0,44.609-58.364ZM148.265,0V-116.727h31.386v20.366h1.216q3.192-10.867,10.715-16.453a28.294,28.294,0,0,1,17.327-5.586,48.971,48.971,0,0,1,5.244.3,36.924,36.924,0,0,1,4.94.836v28.726a42.3,42.3,0,0,0-6.308-1.216,56.666,56.666,0,0,0-7.371-.532A25.936,25.936,0,0,0,192.684-87.2a22.87,22.87,0,0,0-8.815,8.549,24.347,24.347,0,0,0-3.23,12.615V0ZM283,2.28q-17.707,0-30.588-7.561a51.1,51.1,0,0,1-19.873-21.126q-6.991-13.565-6.991-31.5,0-18.087,6.991-31.652a51.1,51.1,0,0,1,19.873-21.126Q265.3-118.247,283-118.247t30.588,7.561a51.1,51.1,0,0,1,19.872,21.126q6.991,13.565,6.991,31.652,0,17.935-6.991,31.5A51.1,51.1,0,0,1,313.591-5.282Q300.71,2.28,283,2.28Zm.152-25.078a20.017,20.017,0,0,0,13.451-4.6,28.278,28.278,0,0,0,8.169-12.577,55.155,55.155,0,0,0,2.774-18.163A55.155,55.155,0,0,0,304.775-76.3a28.552,28.552,0,0,0-8.169-12.615,19.914,19.914,0,0,0-13.451-4.636,20.466,20.466,0,0,0-13.641,4.636A28.092,28.092,0,0,0,261.23-76.3a55.155,55.155,0,0,0-2.774,18.163,55.155,55.155,0,0,0,2.774,18.163A27.826,27.826,0,0,0,269.514-27.4,20.573,20.573,0,0,0,283.155-22.8ZM384.3-116.727l21.43,40.809L427.7-116.727h33.21L427.088-58.364,461.817,0H428.76L405.734-40.353,383.087,0H349.65L384.3-58.364l-33.437-58.364ZM480.056,0V-116.727H512.43V0Zm16.339-131.774a17.514,17.514,0,0,1-12.387-4.826,15.3,15.3,0,0,1-5.168-11.589,15.22,15.22,0,0,1,5.168-11.513,17.419,17.419,0,0,1,12.311-4.826,17.476,17.476,0,0,1,12.425,4.826,15.27,15.27,0,0,1,5.13,11.513,15.351,15.351,0,0,1-5.13,11.589A17.381,17.381,0,0,1,496.395-131.774ZM591.464,2.28q-18.011,0-30.968-7.333a49.605,49.605,0,0,1-19.949-20.822q-6.991-13.489-6.991-31.956,0-18.011,6.991-31.614a51.6,51.6,0,0,1,19.721-21.2q12.729-7.6,29.9-7.6a61.778,61.778,0,0,1,21.544,3.686A48.561,48.561,0,0,1,629.2-103.5,50.366,50.366,0,0,1,640.86-85q4.18,11.133,4.18,26.028v8.891H546.475V-70.143h68.091a24.8,24.8,0,0,0-3.04-12.387,22.118,22.118,0,0,0-8.4-8.473A24.5,24.5,0,0,0,590.7-94.081,24.923,24.923,0,0,0,577.671-90.7a24.256,24.256,0,0,0-8.853,9.043,25.756,25.756,0,0,0-3.268,12.577V-50a32.466,32.466,0,0,0,3.23,14.971,23.118,23.118,0,0,0,9.157,9.727A27.657,27.657,0,0,0,592-21.886a30.616,30.616,0,0,0,9.879-1.52,20.5,20.5,0,0,0,7.675-4.56,19.825,19.825,0,0,0,4.864-7.447l29.942,1.976a40.814,40.814,0,0,1-9.309,18.809A46.77,46.77,0,0,1,616.96-2.166Q605.9,2.28,591.464,2.28ZM763.287-83.442l-29.638,1.824a15.586,15.586,0,0,0-3.268-6.877,17.94,17.94,0,0,0-6.573-4.94,23.12,23.12,0,0,0-9.689-1.862,23.939,23.939,0,0,0-12.691,3.154q-5.168,3.154-5.168,8.4a8.994,8.994,0,0,0,3.344,7.067q3.344,2.888,11.475,4.636l21.126,4.256q17.023,3.5,25.382,11.247t8.359,20.366a31.908,31.908,0,0,1-6.726,20.138A43.925,43.925,0,0,1,740.831-2.546Q729.166,2.28,713.967,2.28q-23.178,0-36.9-9.689A37.439,37.439,0,0,1,661-33.817l31.842-1.672a16.22,16.22,0,0,0,6.992,10.753q5.548,3.686,14.211,3.686,8.511,0,13.717-3.306t5.282-8.549a9.039,9.039,0,0,0-3.724-7.257q-3.648-2.85-11.247-4.37L697.856-48.56q-17.1-3.42-25.42-11.855t-8.321-21.506a31.315,31.315,0,0,1,6.118-19.379q6.118-8.131,17.251-12.539t26.1-4.408q22.114,0,34.843,9.347T763.287-83.442Z" transform="translate(450 207)" fill="url(#linear-gradient)"/>
</svg>
